<svg xmlns="http://www.w3.org/2000/svg" width="512" height="512" viewBox="0 0 512 512" role="img" aria-labelledby="title desc">
  <title id="title">Vibe Plus coral V mark</title>
  <desc id="desc">A light coral V mark without extra code or health symbols.</desc>
  <defs>
    <linearGradient id="coral-a" x1="112" x2="400" y1="98" y2="416" gradientUnits="userSpaceOnUse">
      <stop stop-color="#ffb4a2"/>
      <stop offset=".48" stop-color="#fb7185"/>
      <stop offset="1" stop-color="#f97316"/>
    </linearGradient>
  </defs>
  <rect width="512" height="512" rx="116" fill="#fff8f4"/>
  <path d="M112 124c15-25 53-23 66 4l72 156c3 7 13 7 16 0l73-156c13-27 51-29 66-4 7 12 7 27 1 39L318 414c-24 52-98 52-122 0L111 163c-6-12-6-27 1-39z" fill="url(#coral-a)"/>
  <circle cx="256" cy="330" r="30" fill="#fff8f4"/>
  <path d="M256 313v34M239 330h34" stroke="#9f1239" stroke-linecap="round" stroke-width="9"/>
</svg>
