<svg xmlns="http://www.w3.org/2000/svg" width="512" height="512" viewBox="0 0 512 512" role="img" aria-labelledby="title desc">
  <title id="title">Vibe Plus soft mint V mark</title>
  <desc id="desc">A soft light V mark with gentle mint and lavender colors.</desc>
  <defs>
    <linearGradient id="mint-a" x1="116" x2="396" y1="96" y2="420" gradientUnits="userSpaceOnUse">
      <stop stop-color="#b8a7ff"/>
      <stop offset=".5" stop-color="#7ab8ff"/>
      <stop offset="1" stop-color="#72e6c5"/>
    </linearGradient>
  </defs>
  <rect width="512" height="512" rx="116" fill="#f6fbf8"/>
  <path d="M112 124c15-25 53-23 66 4l72 157c3 7 13 7 16 0l73-157c13-27 51-29 66-4 7 12 7 27 1 39L318 414c-24 52-98 52-122 0L111 163c-6-12-6-27 1-39z" fill="url(#mint-a)"/>
  <circle cx="256" cy="330" r="30" fill="#ffffff"/>
  <path d="M256 312v36M238 330h36" stroke="#2f6fff" stroke-linecap="round" stroke-width="9"/>
</svg>
