<svg xmlns="http://www.w3.org/2000/svg" width="512" height="512" viewBox="0 0 512 512" role="img" aria-labelledby="title desc">
  <title id="title">Vibe Plus lilac V mark</title>
  <desc id="desc">A calm lilac V mark with a subtle plus accent.</desc>
  <defs>
    <linearGradient id="lilac-a" x1="112" x2="400" y1="100" y2="418" gradientUnits="userSpaceOnUse">
      <stop stop-color="#c4b5fd"/>
      <stop offset=".52" stop-color="#818cf8"/>
      <stop offset="1" stop-color="#67e8f9"/>
    </linearGradient>
  </defs>
  <rect width="512" height="512" rx="116" fill="#fbfaff"/>
  <path d="M111 124c15-26 54-24 67 4l72 156c3 7 13 7 16 0l73-156c13-28 52-30 67-4 7 12 7 27 1 40L318 414c-24 53-99 53-123 0L110 164c-6-13-6-28 1-40z" fill="url(#lilac-a)"/>
  <path d="M256 312v42M235 333h42" stroke="#4338ca" stroke-linecap="round" stroke-width="11"/>
</svg>
